{"asset": {"version": "2.0", "generator": "manual-cube"}, "scene": 0, "scenes": [{"nodes": [0]}], "nodes": [{"mesh": 0, "name": "Box"}], "meshes": [{"name": "Box", "primitives": [{"attributes": {"POSITION": 0}, "indices": 1, "material": 0}]}], "materials": [{"name": "Blue", "pbrMetallicRoughness": {"baseColorFactor": [0.29, 0.62, 1.0, 1.0], "metallicFactor": 0.1, "roughnessFactor": 0.4}}], "buffers": [{"uri": "data:application/octet-stream;base64,", "byteLength": 168}], "bufferViews": [{"buffer": 0, "byteOffset": 0, "byteLength": 96, "target": 34962}, {"buffer": 0, "byteOffset": 96, "byteLength": 72, "target": 34963}], "accessors": [{"bufferView": 0, "byteOffset": 0, "componentType": 5126, "count": 8, "type": "VEC3", "min": [-0.5, -0.5, -0.5], "max": [0.5, 0.5, 0.5]}, {"bufferView": 1, "byteOffset": 0, "componentType": 5123, "count": 36, "type": "SCALAR"}]}